HIERARCHY
ROOT Hips
{
	OFFSET -3.958830 18.904000 13.208200
	CHANNELS 6 Xposition Yposition Zposition Zrotation Yrotation Xrotation 
	JOINT LHipJoint
	{
		OFFSET 0.000000 0.000000 0.000000
		CHANNELS 3 Zrotation Yrotation Xrotation
		JOINT LeftUpLeg
		{
			OFFSET 1.800000 -1.400000 0.085000
			CHANNELS 3 Zrotation Yrotation Xrotation
			JOINT LeftLeg
			{
				OFFSET 2.215000 -6.000000 0.000000
				CHANNELS 3 Zrotation Yrotation Xrotation
				JOINT LeftFoot
				{
					OFFSET 2.500000 -6.900000 0.000000
					CHANNELS 3 Zrotation Yrotation Xrotation
					JOINT LeftToeBase
					{
						OFFSET 0.200000 -0.500000 1.950000
						CHANNELS 3 Zrotation Yrotation Xrotation
						End Site
						{
							OFFSET 0.000000 0.000000 0.000000
						}
					}
				}
			}
		}
	}
	JOINT RHipJoint
	{
		OFFSET 0.000000 0.000000 0.000000
		CHANNELS 3 Zrotation Yrotation Xrotation
		JOINT RightUpLeg
		{
			OFFSET -1.800000 -1.400000 0.085000
			CHANNELS 3 Zrotation Yrotation Xrotation
			JOINT RightLeg
			{
				OFFSET -2.215000 -6.000000 0.000000
				CHANNELS 3 Zrotation Yrotation Xrotation
				JOINT RightFoot
				{
					OFFSET -2.500000 -6.900000 0.000000
					CHANNELS 3 Zrotation Yrotation Xrotation
					JOINT RightToeBase
					{
						OFFSET -0.200000 -0.500000 1.950000
						CHANNELS 3 Zrotation Yrotation Xrotation
						End Site
						{
							OFFSET 0.000000 0.000000 0.000000
						}
					}
				}
			}
		}
	}
	JOINT LowerBack
	{
		OFFSET 0.000000 0.000000 0.000000
		CHANNELS 3 Zrotation Yrotation Xrotation
		JOINT Spine
		{
			OFFSET -0.087000 1.940000 -0.288900
			CHANNELS 3 Zrotation Yrotation Xrotation
			JOINT Spine1
			{
				OFFSET 0.000000 1.950000 0.060000
				CHANNELS 3 Zrotation Yrotation Xrotation
				JOINT Neck
				{
					OFFSET 0.000000 0.000000 0.000000
					CHANNELS 3 Zrotation Yrotation Xrotation
					JOINT Neck1
					{
						OFFSET 0.000000 1.600000 0.340000
						CHANNELS 3 Zrotation Yrotation Xrotation
						JOINT Head
						{
							OFFSET 0.000000 1.667000 -0.240000
							CHANNELS 3 Zrotation Yrotation Xrotation
							End Site
							{
								OFFSET 0.000000 0.000000 0.000000
							}
						}
					}
				}
				JOINT LeftShoulder
				{
					OFFSET 0.000000 0.000000 0.000000
					CHANNELS 3 Zrotation Yrotation Xrotation
					JOINT LeftArm
					{
						OFFSET 2.700000 1.550000 -0.730000
						CHANNELS 3 Zrotation Yrotation Xrotation
						JOINT LeftForeArm
						{
							OFFSET 5.450000 0.000000 0.000000
							CHANNELS 3 Zrotation Yrotation Xrotation
							JOINT LeftHand
							{
								OFFSET 3.450000 0.000000 0.000000
								CHANNELS 3 Zrotation Yrotation Xrotation
								JOINT LeftHandIndex1
								{
									OFFSET 0.750000 0.000000 0.000000
									CHANNELS 3 Zrotation Yrotation Xrotation
									End Site
									{
										OFFSET 0.000000 0.000000 0.000000
									}
								}
							}
						}
					}
				}
				JOINT RightShoulder
				{
					OFFSET 0.000000 0.000000 0.000000
					CHANNELS 3 Zrotation Yrotation Xrotation
					JOINT RightArm
					{
						OFFSET -2.700000 1.550000 -0.730000
						CHANNELS 3 Zrotation Yrotation Xrotation
						JOINT RightForeArm
						{
							OFFSET -5.450000 0.000000 0.000000
							CHANNELS 3 Zrotation Yrotation Xrotation
							JOINT RightHand
							{
								OFFSET -3.450000 0.000000 0.000000
								CHANNELS 3 Zrotation Yrotation Xrotation
								JOINT RightHandIndex1
								{
									OFFSET -0.750000 0.000000 0.000000
									CHANNELS 3 Zrotation Yrotation Xrotation
									End Site
									{
										OFFSET 0.000000 0.000000 0.000000
									}
								}
							}
						}
					}
				}
			}
		}
	}
}
MOTION
Frames: 14
Frame Time: 0.016667
0.371130 16.728160 -3.974990 -7.646557 3.175327 -2.527072 -15.105041 11.463469 1.717695 8.311351 -1.757141 -1.388813 -6.064389 4.307004 2.479215 -1.270708 4.763778 2.993989 0.961800 0.843740 0.650510 19.093133 -7.210486 6.434260 -5.449389 11.741097 -80.326631 0.792289 -20.682346 87.385087 -2.658608 -14.765475 -0.527647 0.929270 0.351430 0.254070 -4.796795 -2.985506 -8.605245 20.793050 -11.062918 15.529743 -6.865369 -5.046806 21.725743 -4.196700 -0.496478 -12.668827 -4.167789 -2.194564 25.522749 -3.737100 -2.205310 -18.094480 -11.136263 -45.435703 -3.355084 2.794125 -32.242071 -16.381158 59.815536 -24.149181 -18.527052 -4.610590 2.613659 0.551280 0.316240 -0.011530 0.218990 17.535227 33.911743 16.199575 47.867989 -0.008331 -8.485529 10.009247 26.442713 -1.904695 1.439306 -1.588156 -0.400300 0.636580 -0.018340 -0.294830 
0.365110 16.720210 -3.954990 -7.470419 2.800636 -2.815554 -15.120724 11.585608 1.729129 8.111229 -1.672498 -1.135791 -5.797608 4.386999 3.064509 -1.246267 4.755139 2.997527 0.945430 0.818260 0.646420 19.059080 -7.253033 6.375842 -4.678512 11.620215 -79.599948 0.051078 -19.527715 86.323610 -2.578108 -14.417351 -0.443234 0.897750 0.332150 0.249290 -4.731323 -3.152841 -8.599427 20.282552 -11.124090 16.467203 -6.387825 -5.243544 21.099001 -4.442855 -0.825314 -12.618315 -4.731455 -2.315503 25.341916 -3.635130 -2.352720 -18.630500 -11.738477 -44.603530 -3.358793 2.374577 -32.390253 -16.181428 59.318279 -24.320032 -18.444048 -4.575673 2.607063 0.571900 0.290040 0.003120 0.213410 18.665729 33.159962 16.391179 47.394679 -1.799037 -10.110308 10.706667 29.592431 -1.770587 1.410938 -1.597702 -0.395590 0.627280 -0.018780 -0.295580 
0.354930 16.703350 -3.915890 -7.563079 2.656351 -3.077976 -15.140438 11.782934 1.739357 8.156065 -1.675775 -1.157154 -5.398449 4.515105 4.173330 -1.232403 4.756843 3.009520 0.917940 0.766260 0.633090 19.004274 -7.364734 6.238586 -3.353756 11.073810 -78.256483 -1.403192 -17.427187 83.667303 -2.401192 -13.703236 -0.264063 0.849690 0.329400 0.243230 -4.630238 -3.385022 -8.543431 20.039935 -11.472657 17.493431 -5.926311 -5.723099 19.704142 -4.409584 -1.557478 -12.221077 -5.841531 -2.419402 24.900923 -3.355900 -2.693690 -19.298360 -13.396243 -42.443893 -3.082908 0.473331 -33.300836 -15.234252 59.073463 -25.464349 -19.007158 -4.505203 2.571724 0.609760 0.261450 0.011350 0.215750 20.414375 31.387710 16.242868 45.899019 -4.289276 -11.800103 14.137694 33.157769 -1.021373 1.387885 -1.607883 -0.404830 0.629410 -0.014110 -0.295960 
0.337430 16.670950 -3.856200 -7.051174 2.512584 -2.905483 -15.175785 12.049747 1.788635 7.624521 -1.605144 -1.533314 -5.120081 4.636956 5.445700 -1.201635 4.706979 3.028860 0.898310 0.748310 0.599400 18.922372 -7.508306 6.006913 -2.455190 9.801304 -75.802365 -1.862282 -15.980632 79.362192 -2.181708 -12.854762 -0.040862 0.815840 0.327400 0.232060 -4.472413 -3.750237 -8.446032 18.963400 -11.447246 17.860044 -5.248581 -6.218480 18.284982 -4.500483 -2.408620 -11.768720 -7.110413 -2.318905 24.269279 -2.804670 -2.963780 -19.719300 -14.942472 -39.551949 -2.422723 -3.071518 -34.331713 -14.012807 60.188843 -27.672246 -20.750247 -4.428884 2.551021 0.611320 0.240050 0.010370 0.223950 22.299009 29.202711 15.649905 44.446117 -6.076979 -12.355231 16.943593 34.490437 -0.255773 1.393662 -1.624983 -0.391920 0.621520 -0.014430 -0.278980 
0.308930 16.641490 -3.789220 -6.356144 2.395680 -3.171412 -15.211187 12.439014 1.920721 7.210227 -1.528336 -1.617715 -4.907073 4.847811 6.969758 -1.114429 4.694158 3.035088 0.849450 0.693090 0.578820 18.795688 -7.782320 5.653083 -0.857800 8.471774 -71.604290 -2.809900 -13.993902 73.917503 -1.917826 -11.697091 0.272414 0.736130 0.299740 0.224200 -4.245172 -4.152806 -8.376464 16.991835 -11.056631 18.796689 -4.209877 -6.646299 16.991619 -4.232743 -2.867621 -11.554309 -8.069817 -2.030943 24.782172 -2.220550 -2.583140 -20.568220 -17.110021 -37.181494 -1.410048 -7.483451 -35.470722 -12.881032 61.992069 -31.146687 -23.507078 -4.336818 2.495447 0.634270 0.194280 0.040290 0.214880 24.136289 27.631299 15.167424 43.760809 -7.147939 -12.469140 16.931044 34.180778 -0.000001 1.445577 -1.590129 -0.371120 0.595550 -0.018630 -0.267590 
0.279320 16.609640 -3.705690 -5.620583 2.502926 -3.357748 -15.241231 12.858045 2.073747 6.735440 -1.488680 -1.712151 -4.464247 5.027685 8.613788 -1.039281 4.708418 3.045865 0.771400 0.589740 0.534690 18.662670 -8.113647 5.256879 0.543860 6.791444 -67.629396 -4.200677 -11.621410 67.021403 -1.563786 -10.257843 0.690929 0.642410 0.298440 0.213290 -4.014680 -4.521446 -8.295626 15.016108 -10.612775 19.123419 -3.199162 -7.024960 15.841550 -3.758923 -3.048050 -11.525973 -8.721956 -1.715777 25.821271 -1.798960 -2.170130 -20.304320 -20.211133 -35.103064 0.021170 -12.187824 -36.597214 -11.418138 63.157376 -36.321789 -26.913547 -4.275339 2.425947 0.650830 0.173610 0.035440 0.207680 26.508533 26.313895 14.666685 43.374268 -7.891476 -12.117260 15.268369 32.316340 -0.138691 1.493360 -1.550920 -0.375930 0.563870 -0.009070 -0.265480 
0.240590 16.566040 -3.605400 -4.250226 3.315569 -3.346049 -15.311825 13.347436 2.262877 5.723481 -1.374454 -1.891518 -3.785249 5.128898 10.349549 -0.943828 4.696427 3.047799 0.725090 0.530650 0.495470 18.486476 -8.445834 4.776699 1.566537 4.702070 -63.588396 -5.898871 -9.338890 59.440774 -1.212000 -8.727383 1.149452 0.564910 0.284920 0.236700 -3.671532 -5.054365 -8.193468 12.000766 -10.003062 18.798772 -2.033683 -7.443943 14.822795 -3.411578 -2.859255 -11.359020 -8.759062 -1.590028 26.720964 -1.439720 -1.804980 -19.656070 -22.623544 -32.255803 1.689841 -17.937435 -38.734988 -9.115712 62.718671 -41.272273 -29.689959 -4.210086 2.415782 0.637240 0.162970 0.040630 0.209810 28.434900 24.202443 13.624134 44.199243 -8.093125 -11.855598 12.009855 30.843555 -0.488212 1.547445 -1.549306 -0.338070 0.491620 -0.013950 -0.248470 
0.212180 16.498910 -3.497870 -3.260097 4.102141 -2.393848 -15.386848 13.719537 2.402581 4.996603 -1.384114 -2.542028 -3.409643 5.197197 11.590766 -0.923438 4.727298 3.042118 0.672780 0.463450 0.464770 18.342871 -8.669589 4.340005 1.555831 2.855851 -60.142778 -5.347042 -8.345766 50.810247 -0.847985 -7.172693 1.634518 0.524300 0.310440 0.248990 -3.376866 -5.505639 -8.002317 10.104026 -9.701209 16.990765 -1.318362 -7.880420 14.072042 -3.074948 -2.479015 -10.864395 -8.031792 -1.714967 26.318049 -1.955260 -1.489160 -18.232780 -23.203168 -28.505329 3.166528 -25.146696 -41.875910 -5.285044 59.684644 -45.170496 -30.524000 -4.131953 2.365827 0.605330 0.197100 0.005190 0.200550 28.476781 20.987085 11.774067 46.253887 -7.287137 -11.570827 8.400988 30.023300 -0.882334 1.589665 -1.534717 -0.343380 0.456300 0.003100 -0.248530 
0.183840 16.439350 -3.377290 -2.060606 4.324667 -2.011477 -15.450991 14.119951 2.578692 4.217784 -1.348030 -2.790294 -3.230089 5.384930 13.285587 -0.868172 4.833579 3.009438 0.605090 0.375150 0.434370 18.193733 -8.965551 3.838266 1.016834 1.126776 -55.235838 -4.476180 -7.311954 41.936399 -0.517915 -5.561924 2.181323 0.460810 0.321210 0.253050 -3.085938 -5.888872 -7.817937 8.063041 -9.451682 15.692327 -0.927145 -8.165954 13.506957 -2.671238 -2.185770 -10.670020 -7.768015 -1.634936 26.619716 -2.694680 -0.982380 -16.757120 -23.953525 -25.917519 4.288666 -31.109321 -43.331373 -2.484233 54.063844 -48.794341 -29.091466 -4.022415 2.326222 0.585180 0.218260 -0.022730 0.183300 28.524539 18.871227 10.549868 48.798858 -6.651353 -11.706874 5.006381 29.447425 -1.335301 1.639458 -1.509711 -0.348490 0.415120 0.020720 -0.254050 
0.151930 16.373040 -3.251430 -0.770117 3.768343 -1.593626 -15.521955 14.450693 2.729378 3.349830 -1.329815 -2.908245 -3.159997 5.595267 15.088283 -0.817786 4.992527 2.962513 0.540810 0.295940 0.400710 18.061667 -9.175260 3.409443 0.262821 0.007545 -50.475309 -3.868055 -6.090466 33.777183 -0.258416 -4.136045 2.694410 0.411240 0.348440 0.254510 -2.797333 -6.254202 -7.640741 6.057961 -9.174300 14.204041 -0.819204 -8.273713 13.098896 -2.390437 -1.803391 -10.416498 -7.328972 -1.372709 26.782323 -3.194280 -0.393870 -15.298010 -24.166542 -23.869165 4.960109 -36.120130 -44.243713 -0.224348 47.066498 -50.577959 -25.923257 -3.933607 2.351047 0.565250 0.247290 -0.054400 0.170780 28.224815 16.989630 9.455575 51.886508 -5.853072 -11.931715 1.903127 29.077885 -1.824108 1.679594 -1.481383 -0.363450 0.393780 0.042610 -0.256270 
0.120400 16.300580 -3.127580 0.303382 2.740049 -1.045810 -15.589856 14.680454 2.824854 2.660353 -1.462224 -3.158030 -3.283776 5.849465 17.097258 -0.758681 5.220545 2.902876 0.466640 0.216760 0.341070 17.963337 -9.269374 3.088506 -0.670087 -0.609769 -46.292571 -3.010549 -5.099586 26.772601 -0.063533 -3.090201 3.103410 0.370080 0.418950 0.266990 -2.550223 -6.590261 -7.471733 4.569109 -9.062846 12.358243 -1.017489 -8.399686 13.121844 -2.212027 -1.287794 -10.276631 -6.600581 -1.155788 26.750710 -3.591260 0.105800 -13.087370 -23.743571 -22.476140 5.684157 -39.982526 -44.957914 1.380275 42.117829 -50.167772 -23.316212 -3.954199 2.429092 0.514960 0.312260 -0.105590 0.171070 27.404179 15.441392 8.377975 55.234097 -4.768914 -11.916356 -0.527045 28.291897 -2.255475 1.709341 -1.458061 -0.379390 0.388640 0.075900 -0.241160 
0.089420 16.230920 -3.010910 1.190019 1.054792 -0.860946 -15.649834 14.835945 2.903243 1.930025 -1.701113 -3.130200 -3.299299 6.084625 19.405720 -0.707091 5.497287 2.813665 0.406880 0.141580 0.328320 17.884150 -9.317079 2.856037 -1.568278 -0.878585 -42.289187 -2.155442 -4.281648 20.930379 0.062564 -2.374852 3.392778 0.331270 0.452810 0.278710 -2.330852 -6.845298 -7.362970 3.263949 -8.955436 11.142715 -1.145390 -8.457624 13.196130 -2.009351 -0.612176 -10.113607 -5.638757 -0.797603 27.088569 -4.610220 1.264450 -11.722220 -23.090227 -21.774502 6.171019 -41.644720 -45.038427 2.033694 39.592097 -49.993009 -22.044140 -3.994731 2.461684 0.494160 0.361240 -0.134810 0.150010 26.307047 14.366104 7.444799 58.340388 -3.369772 -11.559982 -2.189471 26.723756 -2.516873 1.746669 -1.417371 -0.399860 0.378100 0.103330 -0.255260 
0.062420 16.163450 -2.902210 1.727270 -1.093285 -0.772395 -15.683425 14.904971 2.939376 1.230686 -1.971691 -2.941332 -3.115057 6.221433 21.594650 -0.657936 5.759872 2.724196 0.373660 0.110160 0.322920 17.852811 -9.302623 2.715766 -2.238097 -0.886150 -39.174227 -1.350997 -3.746048 16.801089 0.133255 -2.017181 3.548669 0.318940 0.480850 0.294230 -2.213890 -7.034046 -7.268489 2.766338 -9.014593 10.209227 -1.443423 -8.612940 13.483399 -2.057136 -0.079923 -9.997423 -4.761641 -0.415507 26.972563 -5.580810 2.471660 -10.781750 -21.536199 -21.388216 6.531151 -42.004831 -45.351852 2.357046 40.043764 -49.579381 -22.267248 -4.064451 2.470965 0.462240 0.412200 -0.157060 0.136590 24.747544 13.444008 6.540718 61.460727 -1.696048 -11.253910 -4.376090 26.101406 -2.924816 1.761010 -1.408723 -0.407410 0.367890 0.119120 -0.263050 
0.029010 16.104440 -2.802240 1.821220 -4.114394 -1.081299 -15.679278 14.894077 2.971298 1.035151 -2.483891 -2.472601 -3.538353 6.554465 24.011114 -0.608915 6.131607 2.574811 0.381380 0.119750 0.353540 17.865448 -9.276763 2.639466 -2.117239 -0.616176 -36.695551 -0.897927 -3.368841 14.267773 0.147945 -1.845023 3.603616 0.331490 0.469700 0.323250 -2.204406 -7.103289 -7.228009 2.842401 -9.063403 9.942077 -1.643801 -8.720085 14.263606 -2.519784 0.311936 -10.167837 -4.140784 0.319369 26.970217 -6.520000 3.945620 -10.945360 -19.628005 -22.088162 7.027209 -39.557321 -45.398386 1.210289 42.913563 -48.695048 -23.613322 -4.150349 2.473727 0.459440 0.436080 -0.145610 0.120110 23.583587 13.516464 5.997312 63.685160 0.369573 -10.903178 -7.214438 25.929612 -3.493128 1.756286 -1.430505 -0.404010 0.345100 0.121430 -0.283390 
